solid OpenSCAD_Model
  facet normal -1 0 0
    outer loop
      vertex 0 -35 31
      vertex 0 35 45
      vertex 0 35 31
    endloop
  endfacet
  facet normal -1 -0 0
    outer loop
      vertex 0 35 45
      vertex 0 -35 31
      vertex 0 -35 45
    endloop
  endfacet
  facet normal 0 0 1
    outer loop
      vertex 70 35 33
      vertex 64.2 -18.8 33
      vertex 70 -35 33
    endloop
  endfacet
  facet normal -0 0 1
    outer loop
      vertex 58 35 33
      vertex 64.2 -18.8 33
      vertex 70 35 33
    endloop
  endfacet
  facet normal 0 0 1
    outer loop
      vertex 58 -35 33
      vertex 59 -18.8 33
      vertex 58 35 33
    endloop
  endfacet
  facet normal 0 0 1
    outer loop
      vertex 64.2 -18.8 33
      vertex 58 35 33
      vertex 59 -18.8 33
    endloop
  endfacet
  facet normal -0 0 1
    outer loop
      vertex 64.2 -21 33
      vertex 70 -35 33
      vertex 64.2 -18.8 33
    endloop
  endfacet
  facet normal 0 0 1
    outer loop
      vertex 58 -35 33
      vertex 64.2 -21 33
      vertex 59 -21 33
    endloop
  endfacet
  facet normal 0 0 1
    outer loop
      vertex 64.2 -21 33
      vertex 58 -35 33
      vertex 70 -35 33
    endloop
  endfacet
  facet normal 0 0 1
    outer loop
      vertex 59 -18.8 33
      vertex 58 -35 33
      vertex 59 -21 33
    endloop
  endfacet
  facet normal 1 -0 0
    outer loop
      vertex 70 -35 33
      vertex 70 35 31
      vertex 70 35 33
    endloop
  endfacet
  facet normal 1 0 0
    outer loop
      vertex 70 35 31
      vertex 70 -35 33
      vertex 70 -35 31
    endloop
  endfacet
  facet normal 0 1 0
    outer loop
      vertex 70 35 33
      vertex 70 35 31
      vertex 58 35 33
    endloop
  endfacet
  facet normal 0 1 -0
    outer loop
      vertex 58 35 33
      vertex 0 35 45
      vertex 58 35 45
    endloop
  endfacet
  facet normal 0 1 0
    outer loop
      vertex 58 35 33
      vertex 0 35 31
      vertex 0 35 45
    endloop
  endfacet
  facet normal 0 1 0
    outer loop
      vertex 0 35 31
      vertex 58 35 33
      vertex 70 35 31
    endloop
  endfacet
  facet normal 0 0 -1
    outer loop
      vertex 7 28 31
      vertex 2 28 31
      vertex 7 33 31
    endloop
  endfacet
  facet normal 0 0 -1
    outer loop
      vertex 64.2 -18.8 31
      vertex 70 -35 31
      vertex 64.2 -21 31
    endloop
  endfacet
  facet normal 0 0 -1
    outer loop
      vertex 56 -28 31
      vertex 64.2 -21 31
      vertex 70 -35 31
    endloop
  endfacet
  facet normal -0 0 -1
    outer loop
      vertex 59 -21 31
      vertex 56 -28 31
      vertex 59 -18.8 31
    endloop
  endfacet
  facet normal -0 0 -1
    outer loop
      vertex 64.2 -21 31
      vertex 56 -28 31
      vertex 59 -21 31
    endloop
  endfacet
  facet normal 0 0 -1
    outer loop
      vertex 70 -35 31
      vertex 51 -33 31
      vertex 56 -28 31
    endloop
  endfacet
  facet normal 0 0 -1
    outer loop
      vertex 0 -35 31
      vertex 51 -33 31
      vertex 70 -35 31
    endloop
  endfacet
  facet normal 0 0 -1
    outer loop
      vertex 7 -33 31
      vertex 2 -28 31
      vertex 7 -28 31
    endloop
  endfacet
  facet normal -0 0 -1
    outer loop
      vertex 2 -28 31
      vertex 0 -35 31
      vertex 2 28 31
    endloop
  endfacet
  facet normal -0 0 -1
    outer loop
      vertex 7 -33 31
      vertex 0 -35 31
      vertex 2 -28 31
    endloop
  endfacet
  facet normal -0 0 -1
    outer loop
      vertex 51 -33 31
      vertex 0 -35 31
      vertex 7 -33 31
    endloop
  endfacet
  facet normal 0 0 -1
    outer loop
      vertex 70 -35 31
      vertex 64.2 -18.8 31
      vertex 70 35 31
    endloop
  endfacet
  facet normal 0 0 -1
    outer loop
      vertex 56 28 31
      vertex 64.2 -18.8 31
      vertex 59 -18.8 31
    endloop
  endfacet
  facet normal 0 0 -1
    outer loop
      vertex 56 28 31
      vertex 59 -18.8 31
      vertex 56 -28 31
    endloop
  endfacet
  facet normal 0 0 -1
    outer loop
      vertex 64.2 -18.8 31
      vertex 56 28 31
      vertex 70 35 31
    endloop
  endfacet
  facet normal 0 0 -1
    outer loop
      vertex 51 33 31
      vertex 56 28 31
      vertex 51 28 31
    endloop
  endfacet
  facet normal 0 0 -1
    outer loop
      vertex 56 28 31
      vertex 51 33 31
      vertex 70 35 31
    endloop
  endfacet
  facet normal 0 0 -1
    outer loop
      vertex 0 35 31
      vertex 51 33 31
      vertex 7 33 31
    endloop
  endfacet
  facet normal 0 0 -1
    outer loop
      vertex 51 33 31
      vertex 0 35 31
      vertex 70 35 31
    endloop
  endfacet
  facet normal 0 0 -1
    outer loop
      vertex 2 28 31
      vertex 0 35 31
      vertex 7 33 31
    endloop
  endfacet
  facet normal 0 0 -1
    outer loop
      vertex 0 35 31
      vertex 2 28 31
      vertex 0 -35 31
    endloop
  endfacet
  facet normal -0 0 -1
    outer loop
      vertex 56 -28 31
      vertex 51 -33 31
      vertex 51 -28 31
    endloop
  endfacet
  facet normal 0 -1 0
    outer loop
      vertex 0 -35 45
      vertex 58 -35 33
      vertex 58 -35 45
    endloop
  endfacet
  facet normal 0 -1 0
    outer loop
      vertex 0 -35 31
      vertex 58 -35 33
      vertex 0 -35 45
    endloop
  endfacet
  facet normal 0 -1 0
    outer loop
      vertex 70 -35 31
      vertex 58 -35 33
      vertex 0 -35 31
    endloop
  endfacet
  facet normal 0 -1 0
    outer loop
      vertex 58 -35 33
      vertex 70 -35 31
      vertex 70 -35 33
    endloop
  endfacet
  facet normal 1 0 0
    outer loop
      vertex 2 33 45
      vertex 2 28 43
      vertex 2 33 43
    endloop
  endfacet
  facet normal 1 0 0
    outer loop
      vertex 2 28 43
      vertex 2 -28 43
      vertex 2 28 31
    endloop
  endfacet
  facet normal 1 0 0
    outer loop
      vertex 2 33 45
      vertex 2 -28 43
      vertex 2 28 43
    endloop
  endfacet
  facet normal 1 -0 0
    outer loop
      vertex 2 -33 45
      vertex 2 -28 43
      vertex 2 33 45
    endloop
  endfacet
  facet normal 1 0 0
    outer loop
      vertex 2 -28 43
      vertex 2 -33 45
      vertex 2 -33 43
    endloop
  endfacet
  facet normal 1 0 0
    outer loop
      vertex 2 28 31
      vertex 2 -28 43
      vertex 2 -28 31
    endloop
  endfacet
  facet normal -1 0 0
    outer loop
      vertex 56 -15 36
      vertex 56 15 38
      vertex 56 15 36
    endloop
  endfacet
  facet normal -1 -0 0
    outer loop
      vertex 56 15 38
      vertex 56 -15 36
      vertex 56 -15 38
    endloop
  endfacet
  facet normal -1 0 0
    outer loop
      vertex 56 15 36
      vertex 56 28 31
      vertex 56 15 34
    endloop
  endfacet
  facet normal -1 0 0
    outer loop
      vertex 56 28 31
      vertex 56 -15 34
      vertex 56 15 34
    endloop
  endfacet
  facet normal -1 0 0
    outer loop
      vertex 56 -28 31
      vertex 56 -15 36
      vertex 56 -15 34
    endloop
  endfacet
  facet normal -1 -0 0
    outer loop
      vertex 56 -15 36
      vertex 56 -28 31
      vertex 56 -15 38
    endloop
  endfacet
  facet normal -1 -0 0
    outer loop
      vertex 56 -15 38
      vertex 56 -28 31
      vertex 56 -28 43
    endloop
  endfacet
  facet normal -1 0 0
    outer loop
      vertex 56 -28 31
      vertex 56 -15 34
      vertex 56 28 31
    endloop
  endfacet
  facet normal -1 0 0
    outer loop
      vertex 56 28 43
      vertex 56 33 45
      vertex 56 33 43
    endloop
  endfacet
  facet normal -1 0 0
    outer loop
      vertex 56 28 31
      vertex 56 15 36
      vertex 56 28 43
    endloop
  endfacet
  facet normal -1 0 0
    outer loop
      vertex 56 15 38
      vertex 56 28 43
      vertex 56 15 36
    endloop
  endfacet
  facet normal -1 0 0
    outer loop
      vertex 56 15 41.2
      vertex 56 28 43
      vertex 56 15 38
    endloop
  endfacet
  facet normal -1 -0 0
    outer loop
      vertex 56 28 43
      vertex 56 15 41.2
      vertex 56 33 45
    endloop
  endfacet
  facet normal -1 0 0
    outer loop
      vertex 56 -15 41.2
      vertex 56 33 45
      vertex 56 15 41.2
    endloop
  endfacet
  facet normal -1 0 0
    outer loop
      vertex 56 -15 38
      vertex 56 -28 43
      vertex 56 -15 41.2
    endloop
  endfacet
  facet normal -1 0 0
    outer loop
      vertex 56 -33 45
      vertex 56 -15 41.2
      vertex 56 -28 43
    endloop
  endfacet
  facet normal -1 0 0
    outer loop
      vertex 56 -33 45
      vertex 56 -28 43
      vertex 56 -33 43
    endloop
  endfacet
  facet normal -1 0 0
    outer loop
      vertex 56 -15 41.2
      vertex 56 -33 45
      vertex 56 33 45
    endloop
  endfacet
  facet normal 0 1 -0
    outer loop
      vertex 51 -33 31
      vertex 7 -33 43
      vertex 51 -33 43
    endloop
  endfacet
  facet normal 0 1 0
    outer loop
      vertex 7 -33 43
      vertex 51 -33 31
      vertex 7 -33 31
    endloop
  endfacet
  facet normal 0 1 0
    outer loop
      vertex 51 -33 43
      vertex 56 -33 45
      vertex 56 -33 43
    endloop
  endfacet
  facet normal 0 1 0
    outer loop
      vertex 56 -33 45
      vertex 51 -33 43
      vertex 2 -33 45
    endloop
  endfacet
  facet normal 0 1 -0
    outer loop
      vertex 7 -33 43
      vertex 2 -33 45
      vertex 51 -33 43
    endloop
  endfacet
  facet normal 0 1 0
    outer loop
      vertex 2 -33 45
      vertex 7 -33 43
      vertex 2 -33 43
    endloop
  endfacet
  facet normal 0 -1 0
    outer loop
      vertex 7 33 31
      vertex 51 33 43
      vertex 7 33 43
    endloop
  endfacet
  facet normal 0 -1 -0
    outer loop
      vertex 51 33 43
      vertex 7 33 31
      vertex 51 33 31
    endloop
  endfacet
  facet normal 0 -1 0
    outer loop
      vertex 7 33 43
      vertex 2 33 45
      vertex 2 33 43
    endloop
  endfacet
  facet normal 0 -1 0
    outer loop
      vertex 2 33 45
      vertex 7 33 43
      vertex 56 33 45
    endloop
  endfacet
  facet normal 0 -1 0
    outer loop
      vertex 51 33 43
      vertex 56 33 45
      vertex 7 33 43
    endloop
  endfacet
  facet normal 0 -1 -0
    outer loop
      vertex 56 33 45
      vertex 51 33 43
      vertex 56 33 43
    endloop
  endfacet
  facet normal 1 -0 0
    outer loop
      vertex 59 -21 33
      vertex 59 -18.8 31
      vertex 59 -18.8 33
    endloop
  endfacet
  facet normal 1 0 0
    outer loop
      vertex 59 -18.8 31
      vertex 59 -21 33
      vertex 59 -21 31
    endloop
  endfacet
  facet normal -1 0 0
    outer loop
      vertex 64.2 -21 31
      vertex 64.2 -18.8 33
      vertex 64.2 -18.8 31
    endloop
  endfacet
  facet normal -1 -0 0
    outer loop
      vertex 64.2 -18.8 33
      vertex 64.2 -21 31
      vertex 64.2 -21 33
    endloop
  endfacet
  facet normal 0 1 -0
    outer loop
      vertex 64.2 -21 31
      vertex 59 -21 33
      vertex 64.2 -21 33
    endloop
  endfacet
  facet normal 0 1 0
    outer loop
      vertex 59 -21 33
      vertex 64.2 -21 31
      vertex 59 -21 31
    endloop
  endfacet
  facet normal 0 -1 0
    outer loop
      vertex 59 -18.8 31
      vertex 64.2 -18.8 33
      vertex 59 -18.8 33
    endloop
  endfacet
  facet normal 0 -1 -0
    outer loop
      vertex 64.2 -18.8 33
      vertex 59 -18.8 31
      vertex 64.2 -18.8 31
    endloop
  endfacet
  facet normal 0 0 1
    outer loop
      vertex 58 35 45
      vertex 56 33 45
      vertex 58 -35 45
    endloop
  endfacet
  facet normal 0 0 1
    outer loop
      vertex 58 35 45
      vertex 2 33 45
      vertex 56 33 45
    endloop
  endfacet
  facet normal 0 0 1
    outer loop
      vertex 2 33 45
      vertex 0 35 45
      vertex 2 -33 45
    endloop
  endfacet
  facet normal -0 0 1
    outer loop
      vertex 0 35 45
      vertex 2 33 45
      vertex 58 35 45
    endloop
  endfacet
  facet normal -0 0 1
    outer loop
      vertex 56 -33 45
      vertex 58 -35 45
      vertex 56 33 45
    endloop
  endfacet
  facet normal -0 0 1
    outer loop
      vertex 2 -33 45
      vertex 58 -35 45
      vertex 56 -33 45
    endloop
  endfacet
  facet normal 0 0 1
    outer loop
      vertex 2 -33 45
      vertex 0 -35 45
      vertex 58 -35 45
    endloop
  endfacet
  facet normal 0 0 1
    outer loop
      vertex 0 -35 45
      vertex 2 -33 45
      vertex 0 35 45
    endloop
  endfacet
  facet normal 1 0 0
    outer loop
      vertex 58 15 38
      vertex 58 35 45
      vertex 58 15 41.2
    endloop
  endfacet
  facet normal 1 0 0
    outer loop
      vertex 58 35 45
      vertex 58 -15 41.2
      vertex 58 15 41.2
    endloop
  endfacet
  facet normal 1 0 0
    outer loop
      vertex 58 -15 41.2
      vertex 58 -35 45
      vertex 58 -15 38
    endloop
  endfacet
  facet normal 1 -0 0
    outer loop
      vertex 58 -35 45
      vertex 58 -15 41.2
      vertex 58 35 45
    endloop
  endfacet
  facet normal 1 0 0
    outer loop
      vertex 58 35 45
      vertex 58 15 38
      vertex 58 35 33
    endloop
  endfacet
  facet normal 1 -0 0
    outer loop
      vertex 58 -15 38
      vertex 58 35 33
      vertex 58 15 38
    endloop
  endfacet
  facet normal 1 0 0
    outer loop
      vertex 58 -15 38
      vertex 58 -35 33
      vertex 58 35 33
    endloop
  endfacet
  facet normal 1 0 0
    outer loop
      vertex 58 -35 33
      vertex 58 -15 38
      vertex 58 -35 45
    endloop
  endfacet
  facet normal 0 0 -1
    outer loop
      vertex 56 -15 41.2
      vertex 58 15 41.2
      vertex 58 -15 41.2
    endloop
  endfacet
  facet normal -0 0 -1
    outer loop
      vertex 58 15 41.2
      vertex 56 -15 41.2
      vertex 56 15 41.2
    endloop
  endfacet
  facet normal 0 -1 0
    outer loop
      vertex 56 15 38
      vertex 58 15 41.2
      vertex 56 15 41.2
    endloop
  endfacet
  facet normal 0 -1 -0
    outer loop
      vertex 58 15 41.2
      vertex 56 15 38
      vertex 58 15 38
    endloop
  endfacet
  facet normal -0 0 1
    outer loop
      vertex 56 15 38
      vertex 58 -15 38
      vertex 58 15 38
    endloop
  endfacet
  facet normal 0 0 1
    outer loop
      vertex 58 -15 38
      vertex 56 15 38
      vertex 56 -15 38
    endloop
  endfacet
  facet normal 0 1 -0
    outer loop
      vertex 58 -15 38
      vertex 56 -15 41.2
      vertex 58 -15 41.2
    endloop
  endfacet
  facet normal 0 1 0
    outer loop
      vertex 56 -15 41.2
      vertex 58 -15 38
      vertex 56 -15 38
    endloop
  endfacet
  facet normal 0 0 1
    outer loop
      vertex 7 -28 43
      vertex 5.25 -30.5 43
      vertex 7 -33 43
    endloop
  endfacet
  facet normal 0 0 1
    outer loop
      vertex 7 -28 43
      vertex 5.10676 -30.0592 43
      vertex 5.25 -30.5 43
    endloop
  endfacet
  facet normal 0 0 1
    outer loop
      vertex 7 -28 43
      vertex 4.73176 -29.7867 43
      vertex 5.10676 -30.0592 43
    endloop
  endfacet
  facet normal 0 0 1
    outer loop
      vertex 7 -28 43
      vertex 4.26824 -29.7867 43
      vertex 4.73176 -29.7867 43
    endloop
  endfacet
  facet normal 0 0 1
    outer loop
      vertex 3.89324 -30.0592 43
      vertex 2 -28 43
      vertex 3.75 -30.5 43
    endloop
  endfacet
  facet normal 0 0 1
    outer loop
      vertex 4.26824 -29.7867 43
      vertex 2 -28 43
      vertex 3.89324 -30.0592 43
    endloop
  endfacet
  facet normal -0 0 1
    outer loop
      vertex 2 -28 43
      vertex 4.26824 -29.7867 43
      vertex 7 -28 43
    endloop
  endfacet
  facet normal -0 0 1
    outer loop
      vertex 5.10676 -30.9408 43
      vertex 7 -33 43
      vertex 5.25 -30.5 43
    endloop
  endfacet
  facet normal -0 0 1
    outer loop
      vertex 4.73176 -31.2133 43
      vertex 7 -33 43
      vertex 5.10676 -30.9408 43
    endloop
  endfacet
  facet normal -0 0 1
    outer loop
      vertex 4.26824 -31.2133 43
      vertex 7 -33 43
      vertex 4.73176 -31.2133 43
    endloop
  endfacet
  facet normal 0 0 1
    outer loop
      vertex 2 -33 43
      vertex 3.75 -30.5 43
      vertex 2 -28 43
    endloop
  endfacet
  facet normal 0 0 1
    outer loop
      vertex 4.26824 -31.2133 43
      vertex 2 -33 43
      vertex 7 -33 43
    endloop
  endfacet
  facet normal 0 0 1
    outer loop
      vertex 3.89324 -30.9408 43
      vertex 2 -33 43
      vertex 4.26824 -31.2133 43
    endloop
  endfacet
  facet normal 0 0 1
    outer loop
      vertex 3.75 -30.5 43
      vertex 2 -33 43
      vertex 3.89324 -30.9408 43
    endloop
  endfacet
  facet normal 1 -0 0
    outer loop
      vertex 7 -33 43
      vertex 7 -28 31
      vertex 7 -28 43
    endloop
  endfacet
  facet normal 1 0 0
    outer loop
      vertex 7 -28 31
      vertex 7 -33 43
      vertex 7 -33 31
    endloop
  endfacet
  facet normal 0 1 -0
    outer loop
      vertex 7 -28 31
      vertex 2 -28 43
      vertex 7 -28 43
    endloop
  endfacet
  facet normal 0 1 0
    outer loop
      vertex 2 -28 43
      vertex 7 -28 31
      vertex 2 -28 31
    endloop
  endfacet
  facet normal -0.951056 -0.309019 0
    outer loop
      vertex 5.25 -30.5 38
      vertex 5.10676 -30.0592 43
      vertex 5.10676 -30.0592 38
    endloop
  endfacet
  facet normal -0.951056 -0.309019 0
    outer loop
      vertex 5.10676 -30.0592 43
      vertex 5.25 -30.5 38
      vertex 5.25 -30.5 43
    endloop
  endfacet
  facet normal -0.587785 0.809017 0
    outer loop
      vertex 5.10676 -30.9408 38
      vertex 4.73176 -31.2133 43
      vertex 5.10676 -30.9408 43
    endloop
  endfacet
  facet normal -0.587785 0.809017 0
    outer loop
      vertex 4.73176 -31.2133 43
      vertex 5.10676 -30.9408 38
      vertex 4.73176 -31.2133 38
    endloop
  endfacet
  facet normal 0.587785 -0.809017 0
    outer loop
      vertex 3.89324 -30.0592 38
      vertex 4.26824 -29.7867 43
      vertex 3.89324 -30.0592 43
    endloop
  endfacet
  facet normal 0.587785 -0.809017 0
    outer loop
      vertex 4.26824 -29.7867 43
      vertex 3.89324 -30.0592 38
      vertex 4.26824 -29.7867 38
    endloop
  endfacet
  facet normal -0.587785 -0.809017 0
    outer loop
      vertex 4.73176 -29.7867 38
      vertex 5.10676 -30.0592 43
      vertex 4.73176 -29.7867 43
    endloop
  endfacet
  facet normal -0.587785 -0.809017 -0
    outer loop
      vertex 5.10676 -30.0592 43
      vertex 4.73176 -29.7867 38
      vertex 5.10676 -30.0592 38
    endloop
  endfacet
  facet normal 0.951056 -0.309017 0
    outer loop
      vertex 3.75 -30.5 43
      vertex 3.89324 -30.0592 38
      vertex 3.89324 -30.0592 43
    endloop
  endfacet
  facet normal 0.951056 -0.309017 0
    outer loop
      vertex 3.89324 -30.0592 38
      vertex 3.75 -30.5 43
      vertex 3.75 -30.5 38
    endloop
  endfacet
  facet normal 0 0 1
    outer loop
      vertex 5.10676 -30.0592 38
      vertex 5.10676 -30.9408 38
      vertex 5.25 -30.5 38
    endloop
  endfacet
  facet normal 0 0 1
    outer loop
      vertex 4.73176 -29.7867 38
      vertex 5.10676 -30.9408 38
      vertex 5.10676 -30.0592 38
    endloop
  endfacet
  facet normal 0 0 1
    outer loop
      vertex 4.73176 -29.7867 38
      vertex 4.73176 -31.2133 38
      vertex 5.10676 -30.9408 38
    endloop
  endfacet
  facet normal -0 0 1
    outer loop
      vertex 4.26824 -29.7867 38
      vertex 4.73176 -31.2133 38
      vertex 4.73176 -29.7867 38
    endloop
  endfacet
  facet normal 0 0 1
    outer loop
      vertex 4.26824 -29.7867 38
      vertex 4.26824 -31.2133 38
      vertex 4.73176 -31.2133 38
    endloop
  endfacet
  facet normal -0 0 1
    outer loop
      vertex 3.89324 -30.0592 38
      vertex 4.26824 -31.2133 38
      vertex 4.26824 -29.7867 38
    endloop
  endfacet
  facet normal 0 0 1
    outer loop
      vertex 3.89324 -30.0592 38
      vertex 3.89324 -30.9408 38
      vertex 4.26824 -31.2133 38
    endloop
  endfacet
  facet normal 0 -0 1
    outer loop
      vertex 3.89324 -30.9408 38
      vertex 3.89324 -30.0592 38
      vertex 3.75 -30.5 38
    endloop
  endfacet
  facet normal 0 -1 0
    outer loop
      vertex 4.26824 -29.7867 38
      vertex 4.73176 -29.7867 43
      vertex 4.26824 -29.7867 43
    endloop
  endfacet
  facet normal 0 -1 -0
    outer loop
      vertex 4.73176 -29.7867 43
      vertex 4.26824 -29.7867 38
      vertex 4.73176 -29.7867 38
    endloop
  endfacet
  facet normal 0.951057 0.309016 0
    outer loop
      vertex 3.89324 -30.9408 43
      vertex 3.75 -30.5 38
      vertex 3.75 -30.5 43
    endloop
  endfacet
  facet normal 0.951057 0.309016 0
    outer loop
      vertex 3.75 -30.5 38
      vertex 3.89324 -30.9408 43
      vertex 3.89324 -30.9408 38
    endloop
  endfacet
  facet normal -0.951056 0.309018 0
    outer loop
      vertex 5.10676 -30.9408 38
      vertex 5.25 -30.5 43
      vertex 5.25 -30.5 38
    endloop
  endfacet
  facet normal -0.951056 0.309018 0
    outer loop
      vertex 5.25 -30.5 43
      vertex 5.10676 -30.9408 38
      vertex 5.10676 -30.9408 43
    endloop
  endfacet
  facet normal 0 1 -0
    outer loop
      vertex 4.73176 -31.2133 38
      vertex 4.26824 -31.2133 43
      vertex 4.73176 -31.2133 43
    endloop
  endfacet
  facet normal 0 1 0
    outer loop
      vertex 4.26824 -31.2133 43
      vertex 4.73176 -31.2133 38
      vertex 4.26824 -31.2133 38
    endloop
  endfacet
  facet normal 0.587785 0.809017 -0
    outer loop
      vertex 4.26824 -31.2133 38
      vertex 3.89324 -30.9408 43
      vertex 4.26824 -31.2133 43
    endloop
  endfacet
  facet normal 0.587785 0.809017 0
    outer loop
      vertex 3.89324 -30.9408 43
      vertex 4.26824 -31.2133 38
      vertex 3.89324 -30.9408 38
    endloop
  endfacet
  facet normal 0 0 1
    outer loop
      vertex 7 33 43
      vertex 5.25 30.5 43
      vertex 7 28 43
    endloop
  endfacet
  facet normal 0 0 1
    outer loop
      vertex 7 33 43
      vertex 5.10676 30.9408 43
      vertex 5.25 30.5 43
    endloop
  endfacet
  facet normal 0 0 1
    outer loop
      vertex 7 33 43
      vertex 4.73176 31.2133 43
      vertex 5.10676 30.9408 43
    endloop
  endfacet
  facet normal 0 0 1
    outer loop
      vertex 7 33 43
      vertex 4.26824 31.2133 43
      vertex 4.73176 31.2133 43
    endloop
  endfacet
  facet normal 0 0 1
    outer loop
      vertex 3.89324 30.9408 43
      vertex 2 33 43
      vertex 3.75 30.5 43
    endloop
  endfacet
  facet normal 0 0 1
    outer loop
      vertex 4.26824 31.2133 43
      vertex 2 33 43
      vertex 3.89324 30.9408 43
    endloop
  endfacet
  facet normal -0 0 1
    outer loop
      vertex 2 33 43
      vertex 4.26824 31.2133 43
      vertex 7 33 43
    endloop
  endfacet
  facet normal -0 0 1
    outer loop
      vertex 5.10676 30.0592 43
      vertex 7 28 43
      vertex 5.25 30.5 43
    endloop
  endfacet
  facet normal -0 0 1
    outer loop
      vertex 4.73176 29.7867 43
      vertex 7 28 43
      vertex 5.10676 30.0592 43
    endloop
  endfacet
  facet normal -0 0 1
    outer loop
      vertex 4.26824 29.7867 43
      vertex 7 28 43
      vertex 4.73176 29.7867 43
    endloop
  endfacet
  facet normal 0 0 1
    outer loop
      vertex 2 28 43
      vertex 3.75 30.5 43
      vertex 2 33 43
    endloop
  endfacet
  facet normal 0 0 1
    outer loop
      vertex 4.26824 29.7867 43
      vertex 2 28 43
      vertex 7 28 43
    endloop
  endfacet
  facet normal 0 0 1
    outer loop
      vertex 3.89324 30.0592 43
      vertex 2 28 43
      vertex 4.26824 29.7867 43
    endloop
  endfacet
  facet normal 0 0 1
    outer loop
      vertex 3.75 30.5 43
      vertex 2 28 43
      vertex 3.89324 30.0592 43
    endloop
  endfacet
  facet normal 1 -0 0
    outer loop
      vertex 7 28 43
      vertex 7 33 31
      vertex 7 33 43
    endloop
  endfacet
  facet normal 1 0 0
    outer loop
      vertex 7 33 31
      vertex 7 28 43
      vertex 7 28 31
    endloop
  endfacet
  facet normal 0 -1 0
    outer loop
      vertex 2 28 31
      vertex 7 28 43
      vertex 2 28 43
    endloop
  endfacet
  facet normal 0 -1 -0
    outer loop
      vertex 7 28 43
      vertex 2 28 31
      vertex 7 28 31
    endloop
  endfacet
  facet normal -0.951056 -0.309019 0
    outer loop
      vertex 5.25 30.5 38
      vertex 5.10676 30.9408 43
      vertex 5.10676 30.9408 38
    endloop
  endfacet
  facet normal -0.951056 -0.309019 0
    outer loop
      vertex 5.10676 30.9408 43
      vertex 5.25 30.5 38
      vertex 5.25 30.5 43
    endloop
  endfacet
  facet normal -0.587785 0.809017 0
    outer loop
      vertex 5.10676 30.0592 38
      vertex 4.73176 29.7867 43
      vertex 5.10676 30.0592 43
    endloop
  endfacet
  facet normal -0.587785 0.809017 0
    outer loop
      vertex 4.73176 29.7867 43
      vertex 5.10676 30.0592 38
      vertex 4.73176 29.7867 38
    endloop
  endfacet
  facet normal 0.587785 -0.809017 0
    outer loop
      vertex 3.89324 30.9408 38
      vertex 4.26824 31.2133 43
      vertex 3.89324 30.9408 43
    endloop
  endfacet
  facet normal 0.587785 -0.809017 0
    outer loop
      vertex 4.26824 31.2133 43
      vertex 3.89324 30.9408 38
      vertex 4.26824 31.2133 38
    endloop
  endfacet
  facet normal -0.587785 -0.809017 0
    outer loop
      vertex 4.73176 31.2133 38
      vertex 5.10676 30.9408 43
      vertex 4.73176 31.2133 43
    endloop
  endfacet
  facet normal -0.587785 -0.809017 -0
    outer loop
      vertex 5.10676 30.9408 43
      vertex 4.73176 31.2133 38
      vertex 5.10676 30.9408 38
    endloop
  endfacet
  facet normal 0.951056 -0.309017 0
    outer loop
      vertex 3.75 30.5 43
      vertex 3.89324 30.9408 38
      vertex 3.89324 30.9408 43
    endloop
  endfacet
  facet normal 0.951056 -0.309017 0
    outer loop
      vertex 3.89324 30.9408 38
      vertex 3.75 30.5 43
      vertex 3.75 30.5 38
    endloop
  endfacet
  facet normal 0 0 1
    outer loop
      vertex 5.10676 30.9408 38
      vertex 5.10676 30.0592 38
      vertex 5.25 30.5 38
    endloop
  endfacet
  facet normal 0 0 1
    outer loop
      vertex 4.73176 31.2133 38
      vertex 5.10676 30.0592 38
      vertex 5.10676 30.9408 38
    endloop
  endfacet
  facet normal 0 0 1
    outer loop
      vertex 4.73176 31.2133 38
      vertex 4.73176 29.7867 38
      vertex 5.10676 30.0592 38
    endloop
  endfacet
  facet normal -0 0 1
    outer loop
      vertex 4.26824 31.2133 38
      vertex 4.73176 29.7867 38
      vertex 4.73176 31.2133 38
    endloop
  endfacet
  facet normal 0 0 1
    outer loop
      vertex 4.26824 31.2133 38
      vertex 4.26824 29.7867 38
      vertex 4.73176 29.7867 38
    endloop
  endfacet
  facet normal -0 0 1
    outer loop
      vertex 3.89324 30.9408 38
      vertex 4.26824 29.7867 38
      vertex 4.26824 31.2133 38
    endloop
  endfacet
  facet normal 0 0 1
    outer loop
      vertex 3.89324 30.9408 38
      vertex 3.89324 30.0592 38
      vertex 4.26824 29.7867 38
    endloop
  endfacet
  facet normal 0 -0 1
    outer loop
      vertex 3.89324 30.0592 38
      vertex 3.89324 30.9408 38
      vertex 3.75 30.5 38
    endloop
  endfacet
  facet normal 0 -1 0
    outer loop
      vertex 4.26824 31.2133 38
      vertex 4.73176 31.2133 43
      vertex 4.26824 31.2133 43
    endloop
  endfacet
  facet normal 0 -1 -0
    outer loop
      vertex 4.73176 31.2133 43
      vertex 4.26824 31.2133 38
      vertex 4.73176 31.2133 38
    endloop
  endfacet
  facet normal 0.951057 0.309016 0
    outer loop
      vertex 3.89324 30.0592 43
      vertex 3.75 30.5 38
      vertex 3.75 30.5 43
    endloop
  endfacet
  facet normal 0.951057 0.309016 0
    outer loop
      vertex 3.75 30.5 38
      vertex 3.89324 30.0592 43
      vertex 3.89324 30.0592 38
    endloop
  endfacet
  facet normal -0.951056 0.309018 0
    outer loop
      vertex 5.10676 30.0592 38
      vertex 5.25 30.5 43
      vertex 5.25 30.5 38
    endloop
  endfacet
  facet normal -0.951056 0.309018 0
    outer loop
      vertex 5.25 30.5 43
      vertex 5.10676 30.0592 38
      vertex 5.10676 30.0592 43
    endloop
  endfacet
  facet normal 0 1 -0
    outer loop
      vertex 4.73176 29.7867 38
      vertex 4.26824 29.7867 43
      vertex 4.73176 29.7867 43
    endloop
  endfacet
  facet normal 0 1 0
    outer loop
      vertex 4.26824 29.7867 43
      vertex 4.73176 29.7867 38
      vertex 4.26824 29.7867 38
    endloop
  endfacet
  facet normal 0.587785 0.809017 -0
    outer loop
      vertex 4.26824 29.7867 38
      vertex 3.89324 30.0592 43
      vertex 4.26824 29.7867 43
    endloop
  endfacet
  facet normal 0.587785 0.809017 0
    outer loop
      vertex 3.89324 30.0592 43
      vertex 4.26824 29.7867 38
      vertex 3.89324 30.0592 38
    endloop
  endfacet
  facet normal -1 0 0
    outer loop
      vertex 51 -33 31
      vertex 51 -28 43
      vertex 51 -28 31
    endloop
  endfacet
  facet normal -1 -0 0
    outer loop
      vertex 51 -28 43
      vertex 51 -33 31
      vertex 51 -33 43
    endloop
  endfacet
  facet normal 0 0 1
    outer loop
      vertex 56 -28 43
      vertex 54.25 -30.5 43
      vertex 56 -33 43
    endloop
  endfacet
  facet normal 0 0 1
    outer loop
      vertex 56 -28 43
      vertex 54.1068 -30.0592 43
      vertex 54.25 -30.5 43
    endloop
  endfacet
  facet normal 0 0 1
    outer loop
      vertex 56 -28 43
      vertex 53.7318 -29.7867 43
      vertex 54.1068 -30.0592 43
    endloop
  endfacet
  facet normal 0 0 1
    outer loop
      vertex 56 -28 43
      vertex 53.2682 -29.7867 43
      vertex 53.7318 -29.7867 43
    endloop
  endfacet
  facet normal 0 0 1
    outer loop
      vertex 52.8932 -30.0592 43
      vertex 51 -28 43
      vertex 52.75 -30.5 43
    endloop
  endfacet
  facet normal 0 0 1
    outer loop
      vertex 53.2682 -29.7867 43
      vertex 51 -28 43
      vertex 52.8932 -30.0592 43
    endloop
  endfacet
  facet normal -0 0 1
    outer loop
      vertex 51 -28 43
      vertex 53.2682 -29.7867 43
      vertex 56 -28 43
    endloop
  endfacet
  facet normal -0 0 1
    outer loop
      vertex 54.1068 -30.9408 43
      vertex 56 -33 43
      vertex 54.25 -30.5 43
    endloop
  endfacet
  facet normal -0 0 1
    outer loop
      vertex 53.7318 -31.2133 43
      vertex 56 -33 43
      vertex 54.1068 -30.9408 43
    endloop
  endfacet
  facet normal -0 0 1
    outer loop
      vertex 53.2682 -31.2133 43
      vertex 56 -33 43
      vertex 53.7318 -31.2133 43
    endloop
  endfacet
  facet normal 0 0 1
    outer loop
      vertex 51 -33 43
      vertex 52.75 -30.5 43
      vertex 51 -28 43
    endloop
  endfacet
  facet normal 0 0 1
    outer loop
      vertex 53.2682 -31.2133 43
      vertex 51 -33 43
      vertex 56 -33 43
    endloop
  endfacet
  facet normal 0 0 1
    outer loop
      vertex 52.8932 -30.9408 43
      vertex 51 -33 43
      vertex 53.2682 -31.2133 43
    endloop
  endfacet
  facet normal 0 0 1
    outer loop
      vertex 52.75 -30.5 43
      vertex 51 -33 43
      vertex 52.8932 -30.9408 43
    endloop
  endfacet
  facet normal 0 1 -0
    outer loop
      vertex 56 -28 31
      vertex 51 -28 43
      vertex 56 -28 43
    endloop
  endfacet
  facet normal 0 1 0
    outer loop
      vertex 51 -28 43
      vertex 56 -28 31
      vertex 51 -28 31
    endloop
  endfacet
  facet normal -0.951056 -0.309019 0
    outer loop
      vertex 54.25 -30.5 38
      vertex 54.1068 -30.0592 43
      vertex 54.1068 -30.0592 38
    endloop
  endfacet
  facet normal -0.951056 -0.309019 0
    outer loop
      vertex 54.1068 -30.0592 43
      vertex 54.25 -30.5 38
      vertex 54.25 -30.5 43
    endloop
  endfacet
  facet normal -0.587785 0.809017 0
    outer loop
      vertex 54.1068 -30.9408 38
      vertex 53.7318 -31.2133 43
      vertex 54.1068 -30.9408 43
    endloop
  endfacet
  facet normal -0.587785 0.809017 0
    outer loop
      vertex 53.7318 -31.2133 43
      vertex 54.1068 -30.9408 38
      vertex 53.7318 -31.2133 38
    endloop
  endfacet
  facet normal 0.587785 -0.809017 0
    outer loop
      vertex 52.8932 -30.0592 38
      vertex 53.2682 -29.7867 43
      vertex 52.8932 -30.0592 43
    endloop
  endfacet
  facet normal 0.587785 -0.809017 0
    outer loop
      vertex 53.2682 -29.7867 43
      vertex 52.8932 -30.0592 38
      vertex 53.2682 -29.7867 38
    endloop
  endfacet
  facet normal -0.587785 -0.809017 0
    outer loop
      vertex 53.7318 -29.7867 38
      vertex 54.1068 -30.0592 43
      vertex 53.7318 -29.7867 43
    endloop
  endfacet
  facet normal -0.587785 -0.809017 -0
    outer loop
      vertex 54.1068 -30.0592 43
      vertex 53.7318 -29.7867 38
      vertex 54.1068 -30.0592 38
    endloop
  endfacet
  facet normal 0.951056 -0.309019 0
    outer loop
      vertex 52.75 -30.5 43
      vertex 52.8932 -30.0592 38
      vertex 52.8932 -30.0592 43
    endloop
  endfacet
  facet normal 0.951056 -0.309019 0
    outer loop
      vertex 52.8932 -30.0592 38
      vertex 52.75 -30.5 43
      vertex 52.75 -30.5 38
    endloop
  endfacet
  facet normal 0 0 1
    outer loop
      vertex 54.1068 -30.0592 38
      vertex 54.1068 -30.9408 38
      vertex 54.25 -30.5 38
    endloop
  endfacet
  facet normal 0 0 1
    outer loop
      vertex 53.7318 -29.7867 38
      vertex 54.1068 -30.9408 38
      vertex 54.1068 -30.0592 38
    endloop
  endfacet
  facet normal 0 0 1
    outer loop
      vertex 53.7318 -29.7867 38
      vertex 53.7318 -31.2133 38
      vertex 54.1068 -30.9408 38
    endloop
  endfacet
  facet normal -0 0 1
    outer loop
      vertex 53.2682 -29.7867 38
      vertex 53.7318 -31.2133 38
      vertex 53.7318 -29.7867 38
    endloop
  endfacet
  facet normal 0 0 1
    outer loop
      vertex 53.2682 -29.7867 38
      vertex 53.2682 -31.2133 38
      vertex 53.7318 -31.2133 38
    endloop
  endfacet
  facet normal -0 0 1
    outer loop
      vertex 52.8932 -30.0592 38
      vertex 53.2682 -31.2133 38
      vertex 53.2682 -29.7867 38
    endloop
  endfacet
  facet normal 0 0 1
    outer loop
      vertex 52.8932 -30.0592 38
      vertex 52.8932 -30.9408 38
      vertex 53.2682 -31.2133 38
    endloop
  endfacet
  facet normal 0 -0 1
    outer loop
      vertex 52.8932 -30.9408 38
      vertex 52.8932 -30.0592 38
      vertex 52.75 -30.5 38
    endloop
  endfacet
  facet normal 0 -1 0
    outer loop
      vertex 53.2682 -29.7867 38
      vertex 53.7318 -29.7867 43
      vertex 53.2682 -29.7867 43
    endloop
  endfacet
  facet normal 0 -1 -0
    outer loop
      vertex 53.7318 -29.7867 43
      vertex 53.2682 -29.7867 38
      vertex 53.7318 -29.7867 38
    endloop
  endfacet
  facet normal 0.951056 0.309018 0
    outer loop
      vertex 52.8932 -30.9408 43
      vertex 52.75 -30.5 38
      vertex 52.75 -30.5 43
    endloop
  endfacet
  facet normal 0.951056 0.309018 0
    outer loop
      vertex 52.75 -30.5 38
      vertex 52.8932 -30.9408 43
      vertex 52.8932 -30.9408 38
    endloop
  endfacet
  facet normal -0.951056 0.309018 0
    outer loop
      vertex 54.1068 -30.9408 38
      vertex 54.25 -30.5 43
      vertex 54.25 -30.5 38
    endloop
  endfacet
  facet normal -0.951056 0.309018 0
    outer loop
      vertex 54.25 -30.5 43
      vertex 54.1068 -30.9408 38
      vertex 54.1068 -30.9408 43
    endloop
  endfacet
  facet normal 0 1 -0
    outer loop
      vertex 53.7318 -31.2133 38
      vertex 53.2682 -31.2133 43
      vertex 53.7318 -31.2133 43
    endloop
  endfacet
  facet normal 0 1 0
    outer loop
      vertex 53.2682 -31.2133 43
      vertex 53.7318 -31.2133 38
      vertex 53.2682 -31.2133 38
    endloop
  endfacet
  facet normal 0.587785 0.809017 -0
    outer loop
      vertex 53.2682 -31.2133 38
      vertex 52.8932 -30.9408 43
      vertex 53.2682 -31.2133 43
    endloop
  endfacet
  facet normal 0.587785 0.809017 0
    outer loop
      vertex 52.8932 -30.9408 43
      vertex 53.2682 -31.2133 38
      vertex 52.8932 -30.9408 38
    endloop
  endfacet
  facet normal -1 0 0
    outer loop
      vertex 51 28 31
      vertex 51 33 43
      vertex 51 33 31
    endloop
  endfacet
  facet normal -1 -0 0
    outer loop
      vertex 51 33 43
      vertex 51 28 31
      vertex 51 28 43
    endloop
  endfacet
  facet normal 0 0 1
    outer loop
      vertex 56 33 43
      vertex 54.25 30.5 43
      vertex 56 28 43
    endloop
  endfacet
  facet normal 0 0 1
    outer loop
      vertex 56 33 43
      vertex 54.1068 30.9408 43
      vertex 54.25 30.5 43
    endloop
  endfacet
  facet normal 0 0 1
    outer loop
      vertex 56 33 43
      vertex 53.7318 31.2133 43
      vertex 54.1068 30.9408 43
    endloop
  endfacet
  facet normal 0 0 1
    outer loop
      vertex 56 33 43
      vertex 53.2682 31.2133 43
      vertex 53.7318 31.2133 43
    endloop
  endfacet
  facet normal 0 0 1
    outer loop
      vertex 52.8932 30.9408 43
      vertex 51 33 43
      vertex 52.75 30.5 43
    endloop
  endfacet
  facet normal 0 0 1
    outer loop
      vertex 53.2682 31.2133 43
      vertex 51 33 43
      vertex 52.8932 30.9408 43
    endloop
  endfacet
  facet normal -0 0 1
    outer loop
      vertex 51 33 43
      vertex 53.2682 31.2133 43
      vertex 56 33 43
    endloop
  endfacet
  facet normal -0 0 1
    outer loop
      vertex 54.1068 30.0592 43
      vertex 56 28 43
      vertex 54.25 30.5 43
    endloop
  endfacet
  facet normal -0 0 1
    outer loop
      vertex 53.7318 29.7867 43
      vertex 56 28 43
      vertex 54.1068 30.0592 43
    endloop
  endfacet
  facet normal -0 0 1
    outer loop
      vertex 53.2682 29.7867 43
      vertex 56 28 43
      vertex 53.7318 29.7867 43
    endloop
  endfacet
  facet normal 0 0 1
    outer loop
      vertex 51 28 43
      vertex 52.75 30.5 43
      vertex 51 33 43
    endloop
  endfacet
  facet normal 0 0 1
    outer loop
      vertex 53.2682 29.7867 43
      vertex 51 28 43
      vertex 56 28 43
    endloop
  endfacet
  facet normal 0 0 1
    outer loop
      vertex 52.8932 30.0592 43
      vertex 51 28 43
      vertex 53.2682 29.7867 43
    endloop
  endfacet
  facet normal 0 0 1
    outer loop
      vertex 52.75 30.5 43
      vertex 51 28 43
      vertex 52.8932 30.0592 43
    endloop
  endfacet
  facet normal 0 -1 0
    outer loop
      vertex 51 28 31
      vertex 56 28 43
      vertex 51 28 43
    endloop
  endfacet
  facet normal 0 -1 -0
    outer loop
      vertex 56 28 43
      vertex 51 28 31
      vertex 56 28 31
    endloop
  endfacet
  facet normal -0.951056 -0.309019 0
    outer loop
      vertex 54.25 30.5 38
      vertex 54.1068 30.9408 43
      vertex 54.1068 30.9408 38
    endloop
  endfacet
  facet normal -0.951056 -0.309019 0
    outer loop
      vertex 54.1068 30.9408 43
      vertex 54.25 30.5 38
      vertex 54.25 30.5 43
    endloop
  endfacet
  facet normal -0.587785 0.809017 0
    outer loop
      vertex 54.1068 30.0592 38
      vertex 53.7318 29.7867 43
      vertex 54.1068 30.0592 43
    endloop
  endfacet
  facet normal -0.587785 0.809017 0
    outer loop
      vertex 53.7318 29.7867 43
      vertex 54.1068 30.0592 38
      vertex 53.7318 29.7867 38
    endloop
  endfacet
  facet normal 0.587785 -0.809017 0
    outer loop
      vertex 52.8932 30.9408 38
      vertex 53.2682 31.2133 43
      vertex 52.8932 30.9408 43
    endloop
  endfacet
  facet normal 0.587785 -0.809017 0
    outer loop
      vertex 53.2682 31.2133 43
      vertex 52.8932 30.9408 38
      vertex 53.2682 31.2133 38
    endloop
  endfacet
  facet normal -0.587785 -0.809017 0
    outer loop
      vertex 53.7318 31.2133 38
      vertex 54.1068 30.9408 43
      vertex 53.7318 31.2133 43
    endloop
  endfacet
  facet normal -0.587785 -0.809017 -0
    outer loop
      vertex 54.1068 30.9408 43
      vertex 53.7318 31.2133 38
      vertex 54.1068 30.9408 38
    endloop
  endfacet
  facet normal 0.951056 -0.309019 0
    outer loop
      vertex 52.75 30.5 43
      vertex 52.8932 30.9408 38
      vertex 52.8932 30.9408 43
    endloop
  endfacet
  facet normal 0.951056 -0.309019 0
    outer loop
      vertex 52.8932 30.9408 38
      vertex 52.75 30.5 43
      vertex 52.75 30.5 38
    endloop
  endfacet
  facet normal 0 0 1
    outer loop
      vertex 54.1068 30.9408 38
      vertex 54.1068 30.0592 38
      vertex 54.25 30.5 38
    endloop
  endfacet
  facet normal 0 0 1
    outer loop
      vertex 53.7318 31.2133 38
      vertex 54.1068 30.0592 38
      vertex 54.1068 30.9408 38
    endloop
  endfacet
  facet normal 0 0 1
    outer loop
      vertex 53.7318 31.2133 38
      vertex 53.7318 29.7867 38
      vertex 54.1068 30.0592 38
    endloop
  endfacet
  facet normal -0 0 1
    outer loop
      vertex 53.2682 31.2133 38
      vertex 53.7318 29.7867 38
      vertex 53.7318 31.2133 38
    endloop
  endfacet
  facet normal 0 0 1
    outer loop
      vertex 53.2682 31.2133 38
      vertex 53.2682 29.7867 38
      vertex 53.7318 29.7867 38
    endloop
  endfacet
  facet normal -0 0 1
    outer loop
      vertex 52.8932 30.9408 38
      vertex 53.2682 29.7867 38
      vertex 53.2682 31.2133 38
    endloop
  endfacet
  facet normal 0 0 1
    outer loop
      vertex 52.8932 30.9408 38
      vertex 52.8932 30.0592 38
      vertex 53.2682 29.7867 38
    endloop
  endfacet
  facet normal 0 -0 1
    outer loop
      vertex 52.8932 30.0592 38
      vertex 52.8932 30.9408 38
      vertex 52.75 30.5 38
    endloop
  endfacet
  facet normal 0 -1 0
    outer loop
      vertex 53.2682 31.2133 38
      vertex 53.7318 31.2133 43
      vertex 53.2682 31.2133 43
    endloop
  endfacet
  facet normal 0 -1 -0
    outer loop
      vertex 53.7318 31.2133 43
      vertex 53.2682 31.2133 38
      vertex 53.7318 31.2133 38
    endloop
  endfacet
  facet normal 0.951056 0.309018 0
    outer loop
      vertex 52.8932 30.0592 43
      vertex 52.75 30.5 38
      vertex 52.75 30.5 43
    endloop
  endfacet
  facet normal 0.951056 0.309018 0
    outer loop
      vertex 52.75 30.5 38
      vertex 52.8932 30.0592 43
      vertex 52.8932 30.0592 38
    endloop
  endfacet
  facet normal -0.951056 0.309018 0
    outer loop
      vertex 54.1068 30.0592 38
      vertex 54.25 30.5 43
      vertex 54.25 30.5 38
    endloop
  endfacet
  facet normal -0.951056 0.309018 0
    outer loop
      vertex 54.25 30.5 43
      vertex 54.1068 30.0592 38
      vertex 54.1068 30.0592 43
    endloop
  endfacet
  facet normal 0 1 -0
    outer loop
      vertex 53.7318 29.7867 38
      vertex 53.2682 29.7867 43
      vertex 53.7318 29.7867 43
    endloop
  endfacet
  facet normal 0 1 0
    outer loop
      vertex 53.2682 29.7867 43
      vertex 53.7318 29.7867 38
      vertex 53.2682 29.7867 38
    endloop
  endfacet
  facet normal 0.587785 0.809017 -0
    outer loop
      vertex 53.2682 29.7867 38
      vertex 52.8932 30.0592 43
      vertex 53.2682 29.7867 43
    endloop
  endfacet
  facet normal 0.587785 0.809017 0
    outer loop
      vertex 52.8932 30.0592 43
      vertex 53.2682 29.7867 38
      vertex 52.8932 30.0592 38
    endloop
  endfacet
  facet normal -1 0 0
    outer loop
      vertex 46 -15 34
      vertex 46 15 36
      vertex 46 15 34
    endloop
  endfacet
  facet normal -1 -0 0
    outer loop
      vertex 46 15 36
      vertex 46 -15 34
      vertex 46 -15 36
    endloop
  endfacet
  facet normal -0 0 1
    outer loop
      vertex 46 15 36
      vertex 56 -15 36
      vertex 56 15 36
    endloop
  endfacet
  facet normal 0 0 1
    outer loop
      vertex 56 -15 36
      vertex 46 15 36
      vertex 46 -15 36
    endloop
  endfacet
  facet normal 0 1 -0
    outer loop
      vertex 56 15 34
      vertex 46 15 36
      vertex 56 15 36
    endloop
  endfacet
  facet normal 0 1 0
    outer loop
      vertex 46 15 36
      vertex 56 15 34
      vertex 46 15 34
    endloop
  endfacet
  facet normal 0 0 -1
    outer loop
      vertex 46 -15 34
      vertex 56 15 34
      vertex 56 -15 34
    endloop
  endfacet
  facet normal -0 0 -1
    outer loop
      vertex 56 15 34
      vertex 46 -15 34
      vertex 46 15 34
    endloop
  endfacet
  facet normal 0 -1 0
    outer loop
      vertex 46 -15 34
      vertex 56 -15 36
      vertex 46 -15 36
    endloop
  endfacet
  facet normal 0 -1 -0
    outer loop
      vertex 56 -15 36
      vertex 46 -15 34
      vertex 56 -15 34
    endloop
  endfacet
endsolid OpenSCAD_Model
