solid OpenSCAD_Model
  facet normal -1 0 0
    outer loop
      vertex -2 -35 20
      vertex -2 -17 31
      vertex -2 -17 20
    endloop
  endfacet
  facet normal -1 -0 0
    outer loop
      vertex -2 -17 31
      vertex -2 -35 20
      vertex -2 -35 31
    endloop
  endfacet
  facet normal -1 0 0
    outer loop
      vertex -2 17 20
      vertex -2 35 31
      vertex -2 35 20
    endloop
  endfacet
  facet normal -1 -0 0
    outer loop
      vertex -2 35 31
      vertex -2 17 20
      vertex -2 17 31
    endloop
  endfacet
  facet normal -1 0 0
    outer loop
      vertex -2 13 20
      vertex -2 15 31
      vertex -2 15 20
    endloop
  endfacet
  facet normal -1 -0 0
    outer loop
      vertex -2 15 31
      vertex -2 13 20
      vertex -2 13 31
    endloop
  endfacet
  facet normal -1 0 0
    outer loop
      vertex -2 9 20
      vertex -2 11 31
      vertex -2 11 20
    endloop
  endfacet
  facet normal -1 -0 0
    outer loop
      vertex -2 11 31
      vertex -2 9 20
      vertex -2 9 31
    endloop
  endfacet
  facet normal -1 0 0
    outer loop
      vertex -2 5 20
      vertex -2 7 31
      vertex -2 7 20
    endloop
  endfacet
  facet normal -1 -0 0
    outer loop
      vertex -2 7 31
      vertex -2 5 20
      vertex -2 5 31
    endloop
  endfacet
  facet normal -1 0 0
    outer loop
      vertex -2 1 20
      vertex -2 3 31
      vertex -2 3 20
    endloop
  endfacet
  facet normal -1 -0 0
    outer loop
      vertex -2 3 31
      vertex -2 1 20
      vertex -2 1 31
    endloop
  endfacet
  facet normal -1 0 0
    outer loop
      vertex -2 -3 20
      vertex -2 -1 31
      vertex -2 -1 20
    endloop
  endfacet
  facet normal -1 -0 0
    outer loop
      vertex -2 -1 31
      vertex -2 -3 20
      vertex -2 -3 31
    endloop
  endfacet
  facet normal -1 0 0
    outer loop
      vertex -2 -7 20
      vertex -2 -5 31
      vertex -2 -5 20
    endloop
  endfacet
  facet normal -1 -0 0
    outer loop
      vertex -2 -5 31
      vertex -2 -7 20
      vertex -2 -7 31
    endloop
  endfacet
  facet normal -1 0 0
    outer loop
      vertex -2 -11 20
      vertex -2 -9 31
      vertex -2 -9 20
    endloop
  endfacet
  facet normal -1 -0 0
    outer loop
      vertex -2 -9 31
      vertex -2 -11 20
      vertex -2 -11 31
    endloop
  endfacet
  facet normal -1 0 0
    outer loop
      vertex -2 -15 20
      vertex -2 -13 31
      vertex -2 -13 20
    endloop
  endfacet
  facet normal -1 -0 0
    outer loop
      vertex -2 -13 31
      vertex -2 -15 20
      vertex -2 -15 31
    endloop
  endfacet
  facet normal -0 0 1
    outer loop
      vertex -2 -13 31
      vertex -1 -15 31
      vertex -1 -13 31
    endloop
  endfacet
  facet normal 0 0 1
    outer loop
      vertex -1 -15 31
      vertex -2 -13 31
      vertex -2 -15 31
    endloop
  endfacet
  facet normal -0 0 1
    outer loop
      vertex -2 -9 31
      vertex -1 -11 31
      vertex -1 -9 31
    endloop
  endfacet
  facet normal 0 0 1
    outer loop
      vertex -1 -11 31
      vertex -2 -9 31
      vertex -2 -11 31
    endloop
  endfacet
  facet normal -0 0 1
    outer loop
      vertex -2 -5 31
      vertex -1 -7 31
      vertex -1 -5 31
    endloop
  endfacet
  facet normal 0 0 1
    outer loop
      vertex -1 -7 31
      vertex -2 -5 31
      vertex -2 -7 31
    endloop
  endfacet
  facet normal -0 0 1
    outer loop
      vertex -2 -1 31
      vertex -1 -3 31
      vertex -1 -1 31
    endloop
  endfacet
  facet normal 0 0 1
    outer loop
      vertex -1 -3 31
      vertex -2 -1 31
      vertex -2 -3 31
    endloop
  endfacet
  facet normal -0 0 1
    outer loop
      vertex -2 3 31
      vertex -1 1 31
      vertex -1 3 31
    endloop
  endfacet
  facet normal 0 0 1
    outer loop
      vertex -1 1 31
      vertex -2 3 31
      vertex -2 1 31
    endloop
  endfacet
  facet normal -0 0 1
    outer loop
      vertex -2 7 31
      vertex -1 5 31
      vertex -1 7 31
    endloop
  endfacet
  facet normal 0 0 1
    outer loop
      vertex -1 5 31
      vertex -2 7 31
      vertex -2 5 31
    endloop
  endfacet
  facet normal -0 0 1
    outer loop
      vertex -2 11 31
      vertex -1 9 31
      vertex -1 11 31
    endloop
  endfacet
  facet normal 0 0 1
    outer loop
      vertex -1 9 31
      vertex -2 11 31
      vertex -2 9 31
    endloop
  endfacet
  facet normal -0 0 1
    outer loop
      vertex -2 15 31
      vertex -1 13 31
      vertex -1 15 31
    endloop
  endfacet
  facet normal 0 0 1
    outer loop
      vertex -1 13 31
      vertex -2 15 31
      vertex -2 13 31
    endloop
  endfacet
  facet normal 0 0 1
    outer loop
      vertex 70 35 31
      vertex 68 33 31
      vertex 70 -35 31
    endloop
  endfacet
  facet normal 0 0 1
    outer loop
      vertex 70 35 31
      vertex 51 33 31
      vertex 68 33 31
    endloop
  endfacet
  facet normal -0 0 1
    outer loop
      vertex -2 35 31
      vertex 51 33 31
      vertex 70 35 31
    endloop
  endfacet
  facet normal 0 0 1
    outer loop
      vertex 51 33 31
      vertex -2 35 31
      vertex 7 33 31
    endloop
  endfacet
  facet normal 0 0 1
    outer loop
      vertex -1 15 31
      vertex 2 33 31
      vertex -1 17 31
    endloop
  endfacet
  facet normal 0 0 1
    outer loop
      vertex 7 33 31
      vertex -2 35 31
      vertex 2 33 31
    endloop
  endfacet
  facet normal 0 0 1
    outer loop
      vertex -2 17 31
      vertex 2 33 31
      vertex -2 35 31
    endloop
  endfacet
  facet normal 0 0 1
    outer loop
      vertex 2 33 31
      vertex -2 17 31
      vertex -1 17 31
    endloop
  endfacet
  facet normal -0 0 1
    outer loop
      vertex 68 -33 31
      vertex 70 -35 31
      vertex 68 33 31
    endloop
  endfacet
  facet normal -0 0 1
    outer loop
      vertex 51 -33 31
      vertex 70 -35 31
      vertex 68 -33 31
    endloop
  endfacet
  facet normal 0 0 1
    outer loop
      vertex -2 -35 31
      vertex 51 -33 31
      vertex 7 -33 31
    endloop
  endfacet
  facet normal 0 0 1
    outer loop
      vertex -2 -35 31
      vertex 7 -33 31
      vertex 2 -33 31
    endloop
  endfacet
  facet normal 0 0 1
    outer loop
      vertex -1 13 31
      vertex 2 33 31
      vertex -1 15 31
    endloop
  endfacet
  facet normal 0 0 1
    outer loop
      vertex -1 11 31
      vertex 2 33 31
      vertex -1 13 31
    endloop
  endfacet
  facet normal 0 0 1
    outer loop
      vertex -1 9 31
      vertex 2 33 31
      vertex -1 11 31
    endloop
  endfacet
  facet normal 0 0 1
    outer loop
      vertex -1 7 31
      vertex 2 33 31
      vertex -1 9 31
    endloop
  endfacet
  facet normal 0 0 1
    outer loop
      vertex -1 5 31
      vertex 2 33 31
      vertex -1 7 31
    endloop
  endfacet
  facet normal 0 0 1
    outer loop
      vertex -1 3 31
      vertex 2 33 31
      vertex -1 5 31
    endloop
  endfacet
  facet normal 0 0 1
    outer loop
      vertex -1 1 31
      vertex 2 33 31
      vertex -1 3 31
    endloop
  endfacet
  facet normal 0 0 1
    outer loop
      vertex 2 33 31
      vertex -1 1 31
      vertex 2 -33 31
    endloop
  endfacet
  facet normal -0 0 1
    outer loop
      vertex -1 -1 31
      vertex 2 -33 31
      vertex -1 1 31
    endloop
  endfacet
  facet normal -0 0 1
    outer loop
      vertex -1 -3 31
      vertex 2 -33 31
      vertex -1 -1 31
    endloop
  endfacet
  facet normal -0 0 1
    outer loop
      vertex -1 -5 31
      vertex 2 -33 31
      vertex -1 -3 31
    endloop
  endfacet
  facet normal -0 0 1
    outer loop
      vertex -1 -7 31
      vertex 2 -33 31
      vertex -1 -5 31
    endloop
  endfacet
  facet normal -0 0 1
    outer loop
      vertex -1 -9 31
      vertex 2 -33 31
      vertex -1 -7 31
    endloop
  endfacet
  facet normal -0 0 1
    outer loop
      vertex -1 -11 31
      vertex 2 -33 31
      vertex -1 -9 31
    endloop
  endfacet
  facet normal -0 0 1
    outer loop
      vertex -1 -13 31
      vertex 2 -33 31
      vertex -1 -11 31
    endloop
  endfacet
  facet normal -0 0 1
    outer loop
      vertex -1 -15 31
      vertex 2 -33 31
      vertex -1 -13 31
    endloop
  endfacet
  facet normal -0 0 1
    outer loop
      vertex -1 -17 31
      vertex 2 -33 31
      vertex -1 -15 31
    endloop
  endfacet
  facet normal -0 0 1
    outer loop
      vertex -2 -17 31
      vertex 2 -33 31
      vertex -1 -17 31
    endloop
  endfacet
  facet normal 0 0 1
    outer loop
      vertex 51 -33 31
      vertex -2 -35 31
      vertex 70 -35 31
    endloop
  endfacet
  facet normal 0 0 1
    outer loop
      vertex -2 -35 31
      vertex 2 -33 31
      vertex -2 -17 31
    endloop
  endfacet
  facet normal -1 0 0
    outer loop
      vertex -1 -17 20
      vertex -1 -15 31
      vertex -1 -15 20
    endloop
  endfacet
  facet normal -1 -0 0
    outer loop
      vertex -1 -15 31
      vertex -1 -17 20
      vertex -1 -17 31
    endloop
  endfacet
  facet normal 0 0 -1
    outer loop
      vertex -2 13 20
      vertex -1 15 20
      vertex -1 13 20
    endloop
  endfacet
  facet normal -0 0 -1
    outer loop
      vertex -1 15 20
      vertex -2 13 20
      vertex -2 15 20
    endloop
  endfacet
  facet normal 0 0 -1
    outer loop
      vertex -2 9 20
      vertex -1 11 20
      vertex -1 9 20
    endloop
  endfacet
  facet normal -0 0 -1
    outer loop
      vertex -1 11 20
      vertex -2 9 20
      vertex -2 11 20
    endloop
  endfacet
  facet normal 0 0 -1
    outer loop
      vertex -2 5 20
      vertex -1 7 20
      vertex -1 5 20
    endloop
  endfacet
  facet normal -0 0 -1
    outer loop
      vertex -1 7 20
      vertex -2 5 20
      vertex -2 7 20
    endloop
  endfacet
  facet normal 0 0 -1
    outer loop
      vertex -2 1 20
      vertex -1 3 20
      vertex -1 1 20
    endloop
  endfacet
  facet normal -0 0 -1
    outer loop
      vertex -1 3 20
      vertex -2 1 20
      vertex -2 3 20
    endloop
  endfacet
  facet normal 0 0 -1
    outer loop
      vertex -2 -3 20
      vertex -1 -1 20
      vertex -1 -3 20
    endloop
  endfacet
  facet normal -0 0 -1
    outer loop
      vertex -1 -1 20
      vertex -2 -3 20
      vertex -2 -1 20
    endloop
  endfacet
  facet normal 0 0 -1
    outer loop
      vertex -2 -7 20
      vertex -1 -5 20
      vertex -1 -7 20
    endloop
  endfacet
  facet normal -0 0 -1
    outer loop
      vertex -1 -5 20
      vertex -2 -7 20
      vertex -2 -5 20
    endloop
  endfacet
  facet normal 0 0 -1
    outer loop
      vertex -2 -11 20
      vertex -1 -9 20
      vertex -1 -11 20
    endloop
  endfacet
  facet normal -0 0 -1
    outer loop
      vertex -1 -9 20
      vertex -2 -11 20
      vertex -2 -9 20
    endloop
  endfacet
  facet normal 0 0 -1
    outer loop
      vertex -2 -15 20
      vertex -1 -13 20
      vertex -1 -15 20
    endloop
  endfacet
  facet normal -0 0 -1
    outer loop
      vertex -1 -13 20
      vertex -2 -15 20
      vertex -2 -13 20
    endloop
  endfacet
  facet normal 0 0 -1
    outer loop
      vertex 70 -35 20
      vertex 58 -33 20
      vertex 70 35 20
    endloop
  endfacet
  facet normal 0 0 -1
    outer loop
      vertex -2 -35 20
      vertex 58 -33 20
      vertex 70 -35 20
    endloop
  endfacet
  facet normal 0 0 -1
    outer loop
      vertex -1 -15 20
      vertex 2 -33 20
      vertex -1 -17 20
    endloop
  endfacet
  facet normal -0 0 -1
    outer loop
      vertex 58 -33 20
      vertex -2 -35 20
      vertex 2 -33 20
    endloop
  endfacet
  facet normal 0 0 -1
    outer loop
      vertex -2 -17 20
      vertex 2 -33 20
      vertex -2 -35 20
    endloop
  endfacet
  facet normal 0 0 -1
    outer loop
      vertex 2 -33 20
      vertex -2 -17 20
      vertex -1 -17 20
    endloop
  endfacet
  facet normal 0 0 -1
    outer loop
      vertex 58 33 20
      vertex 70 35 20
      vertex 58 -33 20
    endloop
  endfacet
  facet normal 0 0 -1
    outer loop
      vertex -2 35 20
      vertex 58 33 20
      vertex 2 33 20
    endloop
  endfacet
  facet normal 0 0 -1
    outer loop
      vertex -1 -13 20
      vertex 2 -33 20
      vertex -1 -15 20
    endloop
  endfacet
  facet normal 0 0 -1
    outer loop
      vertex -1 -11 20
      vertex 2 -33 20
      vertex -1 -13 20
    endloop
  endfacet
  facet normal 0 0 -1
    outer loop
      vertex -1 -9 20
      vertex 2 -33 20
      vertex -1 -11 20
    endloop
  endfacet
  facet normal 0 0 -1
    outer loop
      vertex -1 -7 20
      vertex 2 -33 20
      vertex -1 -9 20
    endloop
  endfacet
  facet normal 0 0 -1
    outer loop
      vertex -1 -5 20
      vertex 2 -33 20
      vertex -1 -7 20
    endloop
  endfacet
  facet normal 0 0 -1
    outer loop
      vertex -1 -3 20
      vertex 2 -33 20
      vertex -1 -5 20
    endloop
  endfacet
  facet normal 0 0 -1
    outer loop
      vertex -1 -1 20
      vertex 2 -33 20
      vertex -1 -3 20
    endloop
  endfacet
  facet normal 0 0 -1
    outer loop
      vertex 2 -33 20
      vertex -1 -1 20
      vertex 2 33 20
    endloop
  endfacet
  facet normal 0 0 -1
    outer loop
      vertex -1 1 20
      vertex 2 33 20
      vertex -1 -1 20
    endloop
  endfacet
  facet normal 0 0 -1
    outer loop
      vertex -1 3 20
      vertex 2 33 20
      vertex -1 1 20
    endloop
  endfacet
  facet normal 0 0 -1
    outer loop
      vertex -1 5 20
      vertex 2 33 20
      vertex -1 3 20
    endloop
  endfacet
  facet normal 0 0 -1
    outer loop
      vertex -1 7 20
      vertex 2 33 20
      vertex -1 5 20
    endloop
  endfacet
  facet normal 0 0 -1
    outer loop
      vertex -1 9 20
      vertex 2 33 20
      vertex -1 7 20
    endloop
  endfacet
  facet normal 0 0 -1
    outer loop
      vertex -1 11 20
      vertex 2 33 20
      vertex -1 9 20
    endloop
  endfacet
  facet normal 0 0 -1
    outer loop
      vertex -1 13 20
      vertex 2 33 20
      vertex -1 11 20
    endloop
  endfacet
  facet normal 0 0 -1
    outer loop
      vertex -1 15 20
      vertex 2 33 20
      vertex -1 13 20
    endloop
  endfacet
  facet normal 0 0 -1
    outer loop
      vertex -1 17 20
      vertex 2 33 20
      vertex -1 15 20
    endloop
  endfacet
  facet normal 0 0 -1
    outer loop
      vertex -2 17 20
      vertex 2 33 20
      vertex -1 17 20
    endloop
  endfacet
  facet normal 0 0 -1
    outer loop
      vertex 58 33 20
      vertex -2 35 20
      vertex 70 35 20
    endloop
  endfacet
  facet normal 0 0 -1
    outer loop
      vertex -2 35 20
      vertex 2 33 20
      vertex -2 17 20
    endloop
  endfacet
  facet normal 0 1 -0
    outer loop
      vertex -1 -17 20
      vertex -2 -17 31
      vertex -1 -17 31
    endloop
  endfacet
  facet normal 0 1 0
    outer loop
      vertex -2 -17 31
      vertex -1 -17 20
      vertex -2 -17 20
    endloop
  endfacet
  facet normal 0 -1 0
    outer loop
      vertex -2 -15 20
      vertex -1 -15 31
      vertex -2 -15 31
    endloop
  endfacet
  facet normal 0 -1 -0
    outer loop
      vertex -1 -15 31
      vertex -2 -15 20
      vertex -1 -15 20
    endloop
  endfacet
  facet normal -1 0 0
    outer loop
      vertex -1 -13 20
      vertex -1 -11 31
      vertex -1 -11 20
    endloop
  endfacet
  facet normal -1 -0 0
    outer loop
      vertex -1 -11 31
      vertex -1 -13 20
      vertex -1 -13 31
    endloop
  endfacet
  facet normal 0 -1 0
    outer loop
      vertex -2 -11 20
      vertex -1 -11 31
      vertex -2 -11 31
    endloop
  endfacet
  facet normal 0 -1 -0
    outer loop
      vertex -1 -11 31
      vertex -2 -11 20
      vertex -1 -11 20
    endloop
  endfacet
  facet normal 0 1 -0
    outer loop
      vertex -1 -13 20
      vertex -2 -13 31
      vertex -1 -13 31
    endloop
  endfacet
  facet normal 0 1 0
    outer loop
      vertex -2 -13 31
      vertex -1 -13 20
      vertex -2 -13 20
    endloop
  endfacet
  facet normal -1 0 0
    outer loop
      vertex -1 -9 20
      vertex -1 -7 31
      vertex -1 -7 20
    endloop
  endfacet
  facet normal -1 -0 0
    outer loop
      vertex -1 -7 31
      vertex -1 -9 20
      vertex -1 -9 31
    endloop
  endfacet
  facet normal 0 -1 0
    outer loop
      vertex -2 -7 20
      vertex -1 -7 31
      vertex -2 -7 31
    endloop
  endfacet
  facet normal 0 -1 -0
    outer loop
      vertex -1 -7 31
      vertex -2 -7 20
      vertex -1 -7 20
    endloop
  endfacet
  facet normal 0 1 -0
    outer loop
      vertex -1 -9 20
      vertex -2 -9 31
      vertex -1 -9 31
    endloop
  endfacet
  facet normal 0 1 0
    outer loop
      vertex -2 -9 31
      vertex -1 -9 20
      vertex -2 -9 20
    endloop
  endfacet
  facet normal -1 0 0
    outer loop
      vertex -1 -5 20
      vertex -1 -3 31
      vertex -1 -3 20
    endloop
  endfacet
  facet normal -1 -0 0
    outer loop
      vertex -1 -3 31
      vertex -1 -5 20
      vertex -1 -5 31
    endloop
  endfacet
  facet normal 0 1 -0
    outer loop
      vertex -1 -5 20
      vertex -2 -5 31
      vertex -1 -5 31
    endloop
  endfacet
  facet normal 0 1 0
    outer loop
      vertex -2 -5 31
      vertex -1 -5 20
      vertex -2 -5 20
    endloop
  endfacet
  facet normal 0 -1 0
    outer loop
      vertex -2 -3 20
      vertex -1 -3 31
      vertex -2 -3 31
    endloop
  endfacet
  facet normal 0 -1 -0
    outer loop
      vertex -1 -3 31
      vertex -2 -3 20
      vertex -1 -3 20
    endloop
  endfacet
  facet normal -1 0 0
    outer loop
      vertex -1 -1 20
      vertex -1 1 31
      vertex -1 1 20
    endloop
  endfacet
  facet normal -1 -0 0
    outer loop
      vertex -1 1 31
      vertex -1 -1 20
      vertex -1 -1 31
    endloop
  endfacet
  facet normal 0 1 -0
    outer loop
      vertex -1 -1 20
      vertex -2 -1 31
      vertex -1 -1 31
    endloop
  endfacet
  facet normal 0 1 0
    outer loop
      vertex -2 -1 31
      vertex -1 -1 20
      vertex -2 -1 20
    endloop
  endfacet
  facet normal 0 -1 0
    outer loop
      vertex -2 1 20
      vertex -1 1 31
      vertex -2 1 31
    endloop
  endfacet
  facet normal 0 -1 -0
    outer loop
      vertex -1 1 31
      vertex -2 1 20
      vertex -1 1 20
    endloop
  endfacet
  facet normal -1 0 0
    outer loop
      vertex -1 3 20
      vertex -1 5 31
      vertex -1 5 20
    endloop
  endfacet
  facet normal -1 -0 0
    outer loop
      vertex -1 5 31
      vertex -1 3 20
      vertex -1 3 31
    endloop
  endfacet
  facet normal 0 1 -0
    outer loop
      vertex -1 3 20
      vertex -2 3 31
      vertex -1 3 31
    endloop
  endfacet
  facet normal 0 1 0
    outer loop
      vertex -2 3 31
      vertex -1 3 20
      vertex -2 3 20
    endloop
  endfacet
  facet normal 0 -1 0
    outer loop
      vertex -2 5 20
      vertex -1 5 31
      vertex -2 5 31
    endloop
  endfacet
  facet normal 0 -1 -0
    outer loop
      vertex -1 5 31
      vertex -2 5 20
      vertex -1 5 20
    endloop
  endfacet
  facet normal -1 0 0
    outer loop
      vertex -1 7 20
      vertex -1 9 31
      vertex -1 9 20
    endloop
  endfacet
  facet normal -1 -0 0
    outer loop
      vertex -1 9 31
      vertex -1 7 20
      vertex -1 7 31
    endloop
  endfacet
  facet normal 0 1 -0
    outer loop
      vertex -1 7 20
      vertex -2 7 31
      vertex -1 7 31
    endloop
  endfacet
  facet normal 0 1 0
    outer loop
      vertex -2 7 31
      vertex -1 7 20
      vertex -2 7 20
    endloop
  endfacet
  facet normal 0 -1 0
    outer loop
      vertex -2 9 20
      vertex -1 9 31
      vertex -2 9 31
    endloop
  endfacet
  facet normal 0 -1 -0
    outer loop
      vertex -1 9 31
      vertex -2 9 20
      vertex -1 9 20
    endloop
  endfacet
  facet normal -1 0 0
    outer loop
      vertex -1 11 20
      vertex -1 13 31
      vertex -1 13 20
    endloop
  endfacet
  facet normal -1 -0 0
    outer loop
      vertex -1 13 31
      vertex -1 11 20
      vertex -1 11 31
    endloop
  endfacet
  facet normal 0 1 -0
    outer loop
      vertex -1 11 20
      vertex -2 11 31
      vertex -1 11 31
    endloop
  endfacet
  facet normal 0 1 0
    outer loop
      vertex -2 11 31
      vertex -1 11 20
      vertex -2 11 20
    endloop
  endfacet
  facet normal 0 -1 0
    outer loop
      vertex -2 13 20
      vertex -1 13 31
      vertex -2 13 31
    endloop
  endfacet
  facet normal 0 -1 -0
    outer loop
      vertex -1 13 31
      vertex -2 13 20
      vertex -1 13 20
    endloop
  endfacet
  facet normal -1 0 0
    outer loop
      vertex -1 15 20
      vertex -1 17 31
      vertex -1 17 20
    endloop
  endfacet
  facet normal -1 -0 0
    outer loop
      vertex -1 17 31
      vertex -1 15 20
      vertex -1 15 31
    endloop
  endfacet
  facet normal 0 1 -0
    outer loop
      vertex -1 15 20
      vertex -2 15 31
      vertex -1 15 31
    endloop
  endfacet
  facet normal 0 1 0
    outer loop
      vertex -2 15 31
      vertex -1 15 20
      vertex -2 15 20
    endloop
  endfacet
  facet normal 0 -1 0
    outer loop
      vertex -2 17 20
      vertex -1 17 31
      vertex -2 17 31
    endloop
  endfacet
  facet normal 0 -1 -0
    outer loop
      vertex -1 17 31
      vertex -2 17 20
      vertex -1 17 20
    endloop
  endfacet
  facet normal 1 -0 0
    outer loop
      vertex 70 -35 31
      vertex 70 35 20
      vertex 70 35 31
    endloop
  endfacet
  facet normal 1 0 0
    outer loop
      vertex 70 35 20
      vertex 70 -35 31
      vertex 70 -35 20
    endloop
  endfacet
  facet normal 0 -1 0
    outer loop
      vertex -2 -35 20
      vertex 70 -35 31
      vertex -2 -35 31
    endloop
  endfacet
  facet normal 0 -1 -0
    outer loop
      vertex 70 -35 31
      vertex -2 -35 20
      vertex 70 -35 20
    endloop
  endfacet
  facet normal 0 1 -0
    outer loop
      vertex 70 35 20
      vertex -2 35 31
      vertex 70 35 31
    endloop
  endfacet
  facet normal 0 1 0
    outer loop
      vertex -2 35 31
      vertex 70 35 20
      vertex -2 35 20
    endloop
  endfacet
  facet normal 1 -0 0
    outer loop
      vertex 2 -33 31
      vertex 2 33 20
      vertex 2 33 31
    endloop
  endfacet
  facet normal 1 0 0
    outer loop
      vertex 2 33 20
      vertex 2 -33 31
      vertex 2 -33 20
    endloop
  endfacet
  facet normal -1 0 0
    outer loop
      vertex 68 -33 22
      vertex 68 33 31
      vertex 68 33 22
    endloop
  endfacet
  facet normal -1 -0 0
    outer loop
      vertex 68 33 31
      vertex 68 -33 22
      vertex 68 -33 31
    endloop
  endfacet
  facet normal -0 0 1
    outer loop
      vertex 58 33 22
      vertex 68 -33 22
      vertex 68 33 22
    endloop
  endfacet
  facet normal 0 0 1
    outer loop
      vertex 68 -33 22
      vertex 58 33 22
      vertex 58 -33 22
    endloop
  endfacet
  facet normal 0 -1 0
    outer loop
      vertex 7 -33 31
      vertex 51 -33 33
      vertex 7 -33 33
    endloop
  endfacet
  facet normal 0 -1 -0
    outer loop
      vertex 51 -33 33
      vertex 7 -33 31
      vertex 51 -33 31
    endloop
  endfacet
  facet normal 0 1 -0
    outer loop
      vertex 58 -33 22
      vertex 51 -33 31
      vertex 68 -33 31
    endloop
  endfacet
  facet normal 0 1 0
    outer loop
      vertex 51 -33 31
      vertex 58 -33 22
      vertex 51 -33 29
    endloop
  endfacet
  facet normal 0 1 0
    outer loop
      vertex 58 -33 22
      vertex 68 -33 31
      vertex 68 -33 22
    endloop
  endfacet
  facet normal 0 1 -0
    outer loop
      vertex 7 -33 29
      vertex 2 -33 31
      vertex 7 -33 31
    endloop
  endfacet
  facet normal 0 1 -0
    outer loop
      vertex 58 -33 20
      vertex 51 -33 29
      vertex 58 -33 22
    endloop
  endfacet
  facet normal 0 1 0
    outer loop
      vertex 2 -33 20
      vertex 51 -33 29
      vertex 58 -33 20
    endloop
  endfacet
  facet normal 0 1 0
    outer loop
      vertex 7 -33 29
      vertex 2 -33 20
      vertex 2 -33 31
    endloop
  endfacet
  facet normal 0 1 0
    outer loop
      vertex 51 -33 29
      vertex 2 -33 20
      vertex 7 -33 29
    endloop
  endfacet
  facet normal 0 1 -0
    outer loop
      vertex 51 33 31
      vertex 7 33 33
      vertex 51 33 33
    endloop
  endfacet
  facet normal 0 1 0
    outer loop
      vertex 7 33 33
      vertex 51 33 31
      vertex 7 33 31
    endloop
  endfacet
  facet normal 0 -1 0
    outer loop
      vertex 2 33 31
      vertex 7 33 29
      vertex 7 33 31
    endloop
  endfacet
  facet normal 0 -1 0
    outer loop
      vertex 2 33 20
      vertex 51 33 29
      vertex 7 33 29
    endloop
  endfacet
  facet normal 0 -1 0
    outer loop
      vertex 2 33 20
      vertex 7 33 29
      vertex 2 33 31
    endloop
  endfacet
  facet normal 0 -1 -0
    outer loop
      vertex 51 33 29
      vertex 2 33 20
      vertex 58 33 20
    endloop
  endfacet
  facet normal 0 -1 0
    outer loop
      vertex 51 33 29
      vertex 58 33 20
      vertex 58 33 22
    endloop
  endfacet
  facet normal 0 -1 0
    outer loop
      vertex 58 33 22
      vertex 51 33 31
      vertex 51 33 29
    endloop
  endfacet
  facet normal 0 -1 0
    outer loop
      vertex 51 33 31
      vertex 58 33 22
      vertex 68 33 31
    endloop
  endfacet
  facet normal 0 -1 -0
    outer loop
      vertex 68 33 31
      vertex 58 33 22
      vertex 68 33 22
    endloop
  endfacet
  facet normal -1 0 0
    outer loop
      vertex 58 -33 20
      vertex 58 33 22
      vertex 58 33 20
    endloop
  endfacet
  facet normal -1 -0 0
    outer loop
      vertex 58 33 22
      vertex 58 -33 20
      vertex 58 -33 22
    endloop
  endfacet
  facet normal -1 0 0
    outer loop
      vertex 7 -33 31
      vertex 7 -31 29
      vertex 7 -33 29
    endloop
  endfacet
  facet normal -1 0 0
    outer loop
      vertex 7 -31 29
      vertex 7 -33 31
      vertex 7 -31 33
    endloop
  endfacet
  facet normal -1 -0 0
    outer loop
      vertex 7 -31 33
      vertex 7 -33 31
      vertex 7 -33 33
    endloop
  endfacet
  facet normal -0 0 1
    outer loop
      vertex 7 -31 33
      vertex 51 -33 33
      vertex 51 -31 33
    endloop
  endfacet
  facet normal 0 0 1
    outer loop
      vertex 51 -33 33
      vertex 7 -31 33
      vertex 7 -33 33
    endloop
  endfacet
  facet normal 1 0 0
    outer loop
      vertex 51 -33 31
      vertex 51 -31 33
      vertex 51 -33 33
    endloop
  endfacet
  facet normal 1 0 0
    outer loop
      vertex 51 -31 33
      vertex 51 -33 31
      vertex 51 -31 29
    endloop
  endfacet
  facet normal 1 0 0
    outer loop
      vertex 51 -31 29
      vertex 51 -33 31
      vertex 51 -33 29
    endloop
  endfacet
  facet normal 0 0 -1
    outer loop
      vertex 7 -33 29
      vertex 51 -31 29
      vertex 51 -33 29
    endloop
  endfacet
  facet normal -0 0 -1
    outer loop
      vertex 51 -31 29
      vertex 7 -33 29
      vertex 7 -31 29
    endloop
  endfacet
  facet normal 0 1 -0
    outer loop
      vertex 51 -31 29
      vertex 7 -31 33
      vertex 51 -31 33
    endloop
  endfacet
  facet normal 0 1 0
    outer loop
      vertex 7 -31 33
      vertex 51 -31 29
      vertex 7 -31 29
    endloop
  endfacet
  facet normal -1 0 0
    outer loop
      vertex 7 31 29
      vertex 7 33 31
      vertex 7 33 29
    endloop
  endfacet
  facet normal -1 0 0
    outer loop
      vertex 7 31 33
      vertex 7 33 31
      vertex 7 31 29
    endloop
  endfacet
  facet normal -1 0 0
    outer loop
      vertex 7 33 31
      vertex 7 31 33
      vertex 7 33 33
    endloop
  endfacet
  facet normal -0 0 1
    outer loop
      vertex 7 33 33
      vertex 51 31 33
      vertex 51 33 33
    endloop
  endfacet
  facet normal 0 0 1
    outer loop
      vertex 51 31 33
      vertex 7 33 33
      vertex 7 31 33
    endloop
  endfacet
  facet normal 1 -0 0
    outer loop
      vertex 51 31 33
      vertex 51 33 31
      vertex 51 33 33
    endloop
  endfacet
  facet normal 1 0 0
    outer loop
      vertex 51 31 29
      vertex 51 33 31
      vertex 51 31 33
    endloop
  endfacet
  facet normal 1 0 0
    outer loop
      vertex 51 33 31
      vertex 51 31 29
      vertex 51 33 29
    endloop
  endfacet
  facet normal 0 0 -1
    outer loop
      vertex 7 31 29
      vertex 51 33 29
      vertex 51 31 29
    endloop
  endfacet
  facet normal -0 0 -1
    outer loop
      vertex 51 33 29
      vertex 7 31 29
      vertex 7 33 29
    endloop
  endfacet
  facet normal 0 -1 0
    outer loop
      vertex 7 31 29
      vertex 51 31 33
      vertex 7 31 33
    endloop
  endfacet
  facet normal 0 -1 -0
    outer loop
      vertex 51 31 33
      vertex 7 31 29
      vertex 51 31 29
    endloop
  endfacet
endsolid OpenSCAD_Model
